<?xml version="1.0" standalone="no"?>
<svg xmlns:xlink="http://www.w3.org/1999/xlink" id="wave" style="transform:rotate(0deg); transition: 0.3s" viewBox="0 0 1440 130" version="1.1" xmlns="http://www.w3.org/2000/svg"><defs><linearGradient id="sw-gradient-0" x1="0" x2="0" y1="1" y2="0"><stop stop-color="rgba(75.561, 75.561, 75.561, 1)" offset="0%"/><stop stop-color="rgba(76, 76, 76, 1)" offset="100%"/></linearGradient></defs><path style="transform:translate(0, 0px); opacity:1" fill="url(#sw-gradient-0)" d="M0,91L17.1,91C34.3,91,69,91,103,80.2C137.1,69,171,48,206,43.3C240,39,274,52,309,49.8C342.9,48,377,30,411,21.7C445.7,13,480,13,514,26C548.6,39,583,65,617,62.8C651.4,61,686,30,720,28.2C754.3,26,789,52,823,60.7C857.1,69,891,61,926,58.5C960,56,994,61,1029,56.3C1062.9,52,1097,39,1131,45.5C1165.7,52,1200,78,1234,78C1268.6,78,1303,52,1337,54.2C1371.4,56,1406,87,1440,101.8C1474.3,117,1509,117,1543,101.8C1577.1,87,1611,56,1646,47.7C1680,39,1714,52,1749,47.7C1782.9,43,1817,22,1851,23.8C1885.7,26,1920,52,1954,58.5C1988.6,65,2023,52,2057,45.5C2091.4,39,2126,39,2160,34.7C2194.3,30,2229,22,2263,28.2C2297.1,35,2331,56,2366,71.5C2400,87,2434,95,2451,99.7L2468.6,104L2468.6,130L2451.4,130C2434.3,130,2400,130,2366,130C2331.4,130,2297,130,2263,130C2228.6,130,2194,130,2160,130C2125.7,130,2091,130,2057,130C2022.9,130,1989,130,1954,130C1920,130,1886,130,1851,130C1817.1,130,1783,130,1749,130C1714.3,130,1680,130,1646,130C1611.4,130,1577,130,1543,130C1508.6,130,1474,130,1440,130C1405.7,130,1371,130,1337,130C1302.9,130,1269,130,1234,130C1200,130,1166,130,1131,130C1097.1,130,1063,130,1029,130C994.3,130,960,130,926,130C891.4,130,857,130,823,130C788.6,130,754,130,720,130C685.7,130,651,130,617,130C582.9,130,549,130,514,130C480,130,446,130,411,130C377.1,130,343,130,309,130C274.3,130,240,130,206,130C171.4,130,137,130,103,130C68.6,130,34,130,17,130L0,130Z"/></svg>