<?xml version="1.0" standalone="no"?>
<svg xmlns:xlink="http://www.w3.org/1999/xlink" id="wave" style="transform:rotate(0deg); transition: 0.3s" viewBox="0 0 1440 100" version="1.1" xmlns="http://www.w3.org/2000/svg"><defs><linearGradient id="sw-gradient-0" x1="0" x2="0" y1="1" y2="0"><stop stop-color="rgba(44, 44, 44, 1)" offset="0%"/><stop stop-color="rgba(44, 44, 44, 1)" offset="100%"/></linearGradient></defs><path style="transform:translate(0, 0px); opacity:1" fill="url(#sw-gradient-0)" d="M0,10L11.4,13.3C22.9,17,46,23,69,33.3C91.4,43,114,57,137,63.3C160,70,183,70,206,60C228.6,50,251,30,274,30C297.1,30,320,50,343,56.7C365.7,63,389,57,411,45C434.3,33,457,17,480,8.3C502.9,0,526,0,549,6.7C571.4,13,594,27,617,26.7C640,27,663,13,686,13.3C708.6,13,731,27,754,36.7C777.1,47,800,53,823,48.3C845.7,43,869,27,891,21.7C914.3,17,937,23,960,36.7C982.9,50,1006,70,1029,78.3C1051.4,87,1074,83,1097,68.3C1120,53,1143,27,1166,26.7C1188.6,27,1211,53,1234,63.3C1257.1,73,1280,67,1303,60C1325.7,53,1349,47,1371,46.7C1394.3,47,1417,53,1440,51.7C1462.9,50,1486,40,1509,36.7C1531.4,33,1554,37,1577,35C1600,33,1623,27,1634,23.3L1645.7,20L1645.7,100L1634.3,100C1622.9,100,1600,100,1577,100C1554.3,100,1531,100,1509,100C1485.7,100,1463,100,1440,100C1417.1,100,1394,100,1371,100C1348.6,100,1326,100,1303,100C1280,100,1257,100,1234,100C1211.4,100,1189,100,1166,100C1142.9,100,1120,100,1097,100C1074.3,100,1051,100,1029,100C1005.7,100,983,100,960,100C937.1,100,914,100,891,100C868.6,100,846,100,823,100C800,100,777,100,754,100C731.4,100,709,100,686,100C662.9,100,640,100,617,100C594.3,100,571,100,549,100C525.7,100,503,100,480,100C457.1,100,434,100,411,100C388.6,100,366,100,343,100C320,100,297,100,274,100C251.4,100,229,100,206,100C182.9,100,160,100,137,100C114.3,100,91,100,69,100C45.7,100,23,100,11,100L0,100Z"/></svg>