<?xml version="1.0" standalone="no"?>
<svg xmlns:xlink="http://www.w3.org/1999/xlink" id="wave" style="transform:rotate(0deg); transition: 0.3s" viewBox="0 0 1440 100" version="1.1" xmlns="http://www.w3.org/2000/svg"><defs><linearGradient id="sw-gradient-0" x1="0" x2="0" y1="1" y2="0"><stop stop-color="rgba(147, 51, 234, 1)" offset="0%"/><stop stop-color="rgba(147, 51, 234, 1)" offset="100%"/></linearGradient></defs><path style="transform:translate(0, 0px); opacity:1" fill="url(#sw-gradient-0)" d="M0,0L12,0C24,0,48,0,72,15C96,30,120,60,144,63.3C168,67,192,43,216,35C240,27,264,33,288,45C312,57,336,73,360,68.3C384,63,408,37,432,28.3C456,20,480,30,504,41.7C528,53,552,67,576,68.3C600,70,624,60,648,51.7C672,43,696,37,720,31.7C744,27,768,23,792,31.7C816,40,840,60,864,68.3C888,77,912,73,936,68.3C960,63,984,57,1008,45C1032,33,1056,17,1080,15C1104,13,1128,27,1152,40C1176,53,1200,67,1224,73.3C1248,80,1272,80,1296,66.7C1320,53,1344,27,1368,25C1392,23,1416,47,1440,56.7C1464,67,1488,63,1512,55C1536,47,1560,33,1584,31.7C1608,30,1632,40,1656,36.7C1680,33,1704,17,1716,8.3L1728,0L1728,100L1716,100C1704,100,1680,100,1656,100C1632,100,1608,100,1584,100C1560,100,1536,100,1512,100C1488,100,1464,100,1440,100C1416,100,1392,100,1368,100C1344,100,1320,100,1296,100C1272,100,1248,100,1224,100C1200,100,1176,100,1152,100C1128,100,1104,100,1080,100C1056,100,1032,100,1008,100C984,100,960,100,936,100C912,100,888,100,864,100C840,100,816,100,792,100C768,100,744,100,720,100C696,100,672,100,648,100C624,100,600,100,576,100C552,100,528,100,504,100C480,100,456,100,432,100C408,100,384,100,360,100C336,100,312,100,288,100C264,100,240,100,216,100C192,100,168,100,144,100C120,100,96,100,72,100C48,100,24,100,12,100L0,100Z"/></svg>